<svg width="20" height="20" viewBox="0 0 533.5 544.3" xmlns="http://www.w3.org/2000/svg">
  <path fill="#4285F4" d="M533.5 278.4c0-17.4-1.4-34.1-4-50.4H272v95.4h147.4c-6.4 34.7-25.6 64.2-54.5 83.7l88 68.6c51.3-47.3 80.6-117 80.6-197.3z"></path>
  <path fill="#34A853" d="M272 544.3c73.7 0 135.4-24.5 180.6-66.5l-88-68.6c-24.5 16.4-55.8 26-92.6 26-71.1 0-131.3-48-152.8-112.4H27.9v70.4C73.6 478.1 167.4 544.3 272 544.3z"></path>
  <path fill="#FBBC05" d="M119.2 323.8c-10.4-30.7-10.4-63.7 0-94.4V159H27.9C-10.2 231.2-10.2 313.1 27.9 385.3l91.3-61.5z"></path>
  <path fill="#EA4335" d="M272 107.2c39.9 0 75.8 13.7 104.1 40.7l77.8-77.8C407.3 24.3 345.6 0 272 0 167.4 0 73.6 66.2 27.9 159l91.3 70.4C140.7 155.2 200.9 107.2 272 107.2z"></path>
</svg>
